<?xml version="1.0" standalone="no"?>
<!DOCTYPE svg PUBLIC "-//W3C//DTD SVG 20010904//EN"
 "http://www.w3.org/TR/2001/REC-SVG-20010904/DTD/svg10.dtd">
<svg version="1.0" xmlns="http://www.w3.org/2000/svg"
 width="180.000000pt" height="180.000000pt" viewBox="0 0 180.000000 180.000000"
 preserveAspectRatio="xMidYMid meet">

<g transform="translate(0.000000,180.000000) scale(0.100000,-0.100000)"
fill="#FFFFFF" stroke="none">
<path d="M950 1764 c-114 -65 -185 -150 -196 -236 -7 -55 -7 -55 -120 -68
-162 -19 -298 -66 -366 -128 -60 -54 -78 -97 -78 -189 0 -92 16 -142 79 -237
33 -52 47 -84 53 -127 16 -117 85 -283 171 -408 70 -102 291 -305 370 -339 62
-27 92 -13 242 111 149 125 241 240 307 385 31 69 78 232 78 272 0 14 22 60
49 101 119 181 119 315 -1 426 -72 65 -234 115 -433 133 -60 6 -114 15 -119
20 -7 7 -4 20 7 38 35 53 50 98 55 163 4 58 2 69 -17 88 -26 26 -26 26 -81 -5z
m5 -147 c-15 -37 -62 -97 -75 -97 -29 0 12 106 52 134 29 21 40 3 23 -37z
m165 -267 c165 -33 200 -43 246 -69 36 -21 57 -42 74 -75 22 -41 23 -49 13
-89 -7 -24 -28 -71 -47 -103 -43 -73 -56 -132 -49 -235 7 -98 -5 -144 -70
-273 -91 -179 -228 -335 -342 -392 -65 -31 -81 -26 -156 53 -115 119 -196 278
-218 425 -15 97 4 212 43 262 33 43 93 79 166 100 81 22 243 30 334 16 43 -6
84 -9 92 -6 22 8 6 33 -34 52 -49 24 -274 31 -462 15 -163 -14 -206 -7 -257
44 -53 53 -44 134 24 196 51 48 108 70 243 93 45 8 343 -3 400 -14z"/>
</g>
</svg>
